HIERARCHY
ROOT hip
{
  OFFSET 0 0 0
  CHANNELS 6 Xposition Yposition Zposition Zrotation Yrotation Xrotation
  JOINT abdomen
  {
    OFFSET 0 20.6881 -0.73152
    CHANNELS 3 Zrotation Xrotation Yrotation
    JOINT chest
    {
      OFFSET 0 11.7043 -0.48768
      CHANNELS 3 Zrotation Xrotation Yrotation
      JOINT neck
      {
        OFFSET 0 22.1894 -2.19456
        CHANNELS 3 Zrotation Xrotation Yrotation
        JOINT head
        {
          OFFSET -0.24384 7.07133 1.2192
          CHANNELS 3 Zrotation Xrotation Yrotation
          JOINT leftEye
          {
            OFFSET 4.14528 8.04674 8.04672
            CHANNELS 3 Zrotation Xrotation Yrotation
            End Site
            {
              OFFSET 1 0 0
            }
          }
          JOINT rightEye
          {
            OFFSET -3.6576 8.04674 8.04672
            CHANNELS 3 Zrotation Xrotation Yrotation
            End Site
            {
              OFFSET 1 0 0
            }
          }
        }
      }
      JOINT rCollar
      {
        OFFSET -2.68224 19.2634 -4.8768
        CHANNELS 3 Zrotation Xrotation Yrotation
        JOINT rShldr
        {
          OFFSET -8.77824 -1.95073 1.46304
          CHANNELS 3 Zrotation Xrotation Yrotation
          JOINT rForeArm
          {
            OFFSET -28.1742 -1.7115 0.48768
            CHANNELS 3 Zrotation Xrotation Yrotation
            JOINT rHand
            {
              OFFSET -22.5879 0.773209 7.07136
              CHANNELS 3 Zrotation Xrotation Yrotation
              JOINT rThumb1
              {
                OFFSET -1.2192 -0.487915 3.41376
                CHANNELS 3 Zrotation Xrotation Yrotation
                JOINT rThumb2
                {
                  OFFSET -3.37035 -0.52449 3.41376
                  CHANNELS 3 Zrotation Xrotation Yrotation
                  End Site
                  {
                    OFFSET -1.78271 -1.18214 1.43049
                  }
                }
              }
              JOINT rIndex1
              {
                OFFSET -7.75947 0.938293 5.60832
                CHANNELS 3 Zrotation Xrotation Yrotation
                JOINT rIndex2
                {
                  OFFSET -2.54057 -0.884171 1.56538
                  CHANNELS 3 Zrotation Xrotation Yrotation
                  End Site
                  {
                    OFFSET -1.62519 -0.234802 1.16502
                  }
                }
              }
              JOINT rMid1
              {
                OFFSET -8.24714 1.18213 3.41376
                CHANNELS 3 Zrotation Xrotation Yrotation
                JOINT rMid2
                {
                  OFFSET -3.10165 -0.590103 1.0647
                  CHANNELS 3 Zrotation Xrotation Yrotation
                  End Site
                  {
                    OFFSET -2.48547 -0.328903 0.83742
                  }
                }
              }
              JOINT rRing1
              {
                OFFSET -8.82822 0.546677 1.51678
                CHANNELS 3 Zrotation Xrotation Yrotation
                JOINT rRing2
                {
                  OFFSET -2.60934 -0.819778 -0.0198488
                  CHANNELS 3 Zrotation Xrotation Yrotation
                  End Site
                  {
                    OFFSET -2.33842 -0.294052 0.168128
                  }
                }
              }
              JOINT rPinky1
              {
                OFFSET -8.27202 -0.0477905 -0.4584
                CHANNELS 3 Zrotation Xrotation Yrotation
                JOINT rPinky2
                {
                  OFFSET -1.82734 -0.647385 -0.700984
                  CHANNELS 3 Zrotation Xrotation Yrotation
                  End Site
                  {
                    OFFSET -1.69225 -0.51767 -0.607171
                  }
                }
              }
            }
          }
        }
      }
      JOINT lCollar
      {
        OFFSET 2.68224 19.2634 -4.8768
        CHANNELS 3 Zrotation Xrotation Yrotation
        JOINT lShldr
        {
          OFFSET 8.77824 -1.95073 1.46304
          CHANNELS 3 Zrotation Xrotation Yrotation
          JOINT lForeArm
          {
            OFFSET 28.1742 -1.7115 0.48768
            CHANNELS 3 Zrotation Xrotation Yrotation
            JOINT lHand
            {
              OFFSET 22.5879 0.773209 7.07136
              CHANNELS 3 Zrotation Xrotation Yrotation
              JOINT lThumb1
              {
                OFFSET 1.2192 -0.487915 3.41376
                CHANNELS 3 Zrotation Xrotation Yrotation
                JOINT lThumb2
                {
                  OFFSET 3.37035 -0.52449 3.41376
                  CHANNELS 3 Zrotation Xrotation Yrotation
                  End Site
                  {
                    OFFSET 1.78271 -1.18214 1.43049
                  }
                }
              }
              JOINT lIndex1
              {
                OFFSET 7.75947 0.938293 5.60832
                CHANNELS 3 Zrotation Xrotation Yrotation
                JOINT lIndex2
                {
                  OFFSET 2.54057 -0.884171 1.56538
                  CHANNELS 3 Zrotation Xrotation Yrotation
                  End Site
                  {
                    OFFSET 1.62519 -0.234802 1.16502
                  }
                }
              }
              JOINT lMid1
              {
                OFFSET 8.24714 1.18213 3.41376
                CHANNELS 3 Zrotation Xrotation Yrotation
                JOINT lMid2
                {
                  OFFSET 3.10165 -0.590103 1.0647
                  CHANNELS 3 Zrotation Xrotation Yrotation
                  End Site
                  {
                    OFFSET 2.48547 -0.328903 0.83742
                  }
                }
              }
              JOINT lRing1
              {
                OFFSET 8.82822 0.546677 1.51678
                CHANNELS 3 Zrotation Xrotation Yrotation
                JOINT lRing2
                {
                  OFFSET 2.60934 -0.819778 -0.0198488
                  CHANNELS 3 Zrotation Xrotation Yrotation
                  End Site
                  {
                    OFFSET 2.33842 -0.294052 0.168128
                  }
                }
              }
              JOINT lPinky1
              {
                OFFSET 8.27202 -0.0477905 -0.4584
                CHANNELS 3 Zrotation Xrotation Yrotation
                JOINT lPinky2
                {
                  OFFSET 1.82734 -0.647385 -0.700984
                  CHANNELS 3 Zrotation Xrotation Yrotation
                  End Site
                  {
                    OFFSET 1.69225 -0.51767 -0.607171
                  }
                }
              }
            }
          }
        }
      }
    }
  }
  JOINT rButtock
  {
    OFFSET -8.77824 4.35084 1.2192
    CHANNELS 3 Zrotation Xrotation Yrotation
    JOINT rThigh
    {
      OFFSET 0 -1.70687 -2.19456
      CHANNELS 3 Zrotation Xrotation Yrotation
      JOINT rShin
      {
        OFFSET 0 -36.8199 0.73152
        CHANNELS 3 Zrotation Xrotation Yrotation
        JOINT rFoot
        {
          OFFSET 0.73152 -45.1104 -5.12064
          CHANNELS 3 Zrotation Xrotation Yrotation
          End Site
          {
            OFFSET -1.1221 -3.69964 12.103
          }
        }
      }
    }
  }
  JOINT lButtock
  {
    OFFSET 8.77824 4.35084 1.2192
    CHANNELS 3 Zrotation Xrotation Yrotation
    JOINT lThigh
    {
      OFFSET 0 -1.70687 -2.19456
      CHANNELS 3 Zrotation Xrotation Yrotation
      JOINT lShin
      {
        OFFSET 0 -36.8199 0.73152
        CHANNELS 3 Zrotation Xrotation Yrotation
        JOINT lFoot
        {
          OFFSET -0.73152 -45.1104 -5.12064
          CHANNELS 3 Zrotation Xrotation Yrotation
          End Site
          {
            OFFSET 1.1221 -3.69964 12.103
          }
        }
      }
    }
  }
}
MOTION
Frames:	4
Frame Time:	0.00833333
55.1665 80.70819999999999 -29.4263 3.472947 -14.008115 3.411054 -4.505237 -2.226139 -95.295357 -2.111494 -2.614277 87.442386 -9.948493 18.390048 -84.354017 -11.084069 10.533194 74.986995 0.000434 0.0 0.001552 0.003501 -0.0 -0.002131 3.339978 -27.623518 -5.399082 -2.159915 21.346517 6.357962 127.671847 37.40603 107.10122 -179.91437 14.075575 145.492596 -9.466644 9.000189 2.177494 -141.492515 -46.224956 113.885714 -158.936765 -31.110844 122.646585 -165.257915 -26.402546 119.019796 20.863981 -56.921215 -0.36837 13.051293 -30.117423 -1.297964 -0.002033 -0.375347 -0.117621 -33.319475 -85.949576 -54.707352 -141.133302 0.388637 -138.161236 -146.06017 8.084677 -140.839181 157.506386 -19.20862 -164.930824 60.356722 -5.017653 3.353432 171.398887 -11.533778 99.156153 7.130768 2.985745 2.001134 162.918609 -0.602828 -89.356846 0.928414 -48.829465 -12.74942 76.54858 43.110163 -63.529954 32.511696 41.958235 -17.866846 24.882058 43.834513 -19.580544 52.210163 61.515462 -45.795709 -0.005313 1.427574 -0.447254 -7.820027 23.302971 -3.408432 139.876961 -2.811167 136.99989 6.958454 -19.722542 9.973128 -179.9884 75.749595 -0.007816 176.490518 23.061389 -0.489005 6.5601 68.742802 75.292607 -0.504808 42.363984 -83.987453 127.610285 70.030486 38.035433 -146.228949 57.849363 -67.991059 -35.049284 17.53623 -55.068822 46.877819 -5.532548 129.880147
55.005700000000004 80.5092 -29.2206 3.421963 -14.605891 3.219877 -9.632865 -1.206424 75.251299 1.896313 -1.850984 -83.519653 10.719702 17.325166 101.795082 14.255688 6.285288 -120.747089 -0.001354 -0.0 0.000907 -0.001354 -0.0 0.000907 -159.180078 -44.636539 169.700452 -46.530496 64.121744 59.130101 -3.942276 8.441594 81.779883 -6.205164 17.201161 0.059615 2.542042 -2.523782 -0.335885 9.115372 -14.563905 -9.103673 -161.929727 -36.289585 122.686728 -8.642052 34.552294 2.092586 -170.636695 -37.727044 145.314689 -21.46191 45.364088 17.479853 -145.124606 1.622643 -179.637259 -152.817823 -23.171485 -175.700832 21.067129 71.365397 12.938871 3.356206 5.382335 0.78421 153.008834 10.216233 -158.617628 -131.412509 13.623871 -151.193853 159.270435 -32.276622 -72.839792 -174.809976 -24.098336 -143.127288 2.324413 2.279323 -0.402875 -12.726409 -17.258606 7.98916 177.805351 -56.984612 -117.912346 5.351068 32.071866 -1.699745 172.296942 -42.209618 -145.083697 5.434403 21.725224 -4.92208 145.096719 -1.714166 178.588232 156.617741 20.371994 -178.425114 -7.422408 22.980266 -6.583828 140.06947 -9.760658 137.080414 -0.008908 0.001589 -0.005843 -5.760586 -55.606864 178.5255 -26.541436 -71.475857 -121.403243 -6.461359 -5.527991 -102.570653 179.974189 75.750897 0.019498 175.543874 59.289024 171.475574 4.059539 -38.186441 -91.210539 -94.154051 34.857501 -9.953946
54.9579 80.3366 -29.069499999999998 3.543002 -15.090025 3.173021 -5.387619 -2.121924 -99.878183 -1.778088 -2.816555 91.238486 10.016923 13.817271 82.498257 14.527836 10.876949 -100.933232 -0.002825 0.0 -0.003684 0.001158 0.0 0.002501 -146.634563 -80.898405 -170.260423 -127.722813 63.205415 130.53582 -69.022112 -42.619634 21.64118 5.990526 -23.788985 0.719897 153.237127 -37.819587 79.948535 -37.595688 -17.661107 -8.998488 27.831232 -47.634418 -4.66688 13.177599 4.539999 -2.368828 -177.180923 -53.155765 143.518523 6.50397 -10.307159 -0.75969 -145.10517 -1.153361 -178.76638 -154.062725 -12.51734 -177.505567 27.247523 80.364483 9.947996 -162.998155 58.546127 -148.377277 156.435357 -10.074636 -163.182176 57.53149 -37.974016 -3.796356 150.822518 -43.69597 81.0259 3.045171 -11.21637 2.860819 165.162507 -2.834729 -89.634735 162.04356 -4.323969 -82.617895 9.880306 14.164539 -6.369835 -11.410376 -2.172047 0.910489 1.341734 3.824668 -0.774928 -148.653009 -73.647911 -116.539052 -0.003823 0.988211 -0.310467 156.374327 -47.554008 -177.753798 24.163788 -36.994833 23.251052 5.169131 -18.8936 7.663806 -179.998999 75.749485 -0.001559 176.426533 21.497423 -8.717825 -48.910947 67.744396 -41.277036 151.985932 -18.995325 -71.999832 -179.997149 75.749485 -0.002999 175.759916 61.587265 -1.005116 1.483987 37.10438 85.234406 -6.282399 -38.494681 -66.826996
54.8776 80.23979999999999 -28.8416 3.752094 -15.639053 2.945989 -5.695921 -1.697205 -89.037437 -1.694701 -2.601711 80.109636 10.350992 18.411501 109.415123 13.353714 5.480592 -127.289883 -0.001528 -0.0 0.003216 -0.000748 0.0 -0.000144 -2.50574 12.793912 3.150588 -168.318804 6.822321 177.731184 -160.348835 60.369982 -108.021376 -6.341261 10.154739 -0.919453 -30.233514 24.735607 11.132261 32.163911 -30.679183 1.769317 -20.28088 25.107906 14.262457 164.19128 -47.551338 98.934558 -155.267233 8.79111 140.177336 1.394782 5.350461 1.152505 -145.099533 -1.408151 -178.687046 -150.925439 -32.012828 -173.815053 -5.18829 -11.945317 -4.867101 -117.184923 -40.821473 -116.22482 -4.274907 -49.827601 9.73718 56.552805 -35.829597 106.535437 150.049032 10.96473 104.737824 1.028679 -18.251998 2.947149 -5.152938 -5.136223 0.56414 -15.578478 -29.261134 15.896057 141.313115 0.498344 -116.545399 -14.920089 -11.393927 10.342516 150.192471 20.565584 -136.57971 -4.252079 -2.733504 0.006479 0.001775 -0.286616 0.091401 27.288895 74.164469 -40.385999 123.078832 -31.056838 120.897572 -6.339408 8.738478 -0.840978 0.003916 0.000239 0.001019 -7.123919 -56.839504 175.711065 -34.183546 -74.797875 -124.891175 20.968407 72.611098 -97.791278 0.003959 3.3e-05 0.003561 -2.342855 -16.233762 -179.125237 2.726095 -45.850361 -4.031548 46.301494 50.760042 -178.476042
